<svg xmlns="http://www.w3.org/2000/svg" width="488.571" height="539.853" viewBox="0 0 488.571 539.853"><defs><style>.a,.d{fill:#abe5ff;}.a,.m{opacity:0.38;}.b,.c,.n{fill:none;stroke:#abe5ff;stroke-miterlimit:10;}.b{stroke-width:3.409px;}.c{stroke-width:3.351px;}.e,.f,.g{fill:#10c1ff;}.e{opacity:0.4;}.ab,.ac,.e,.g,.v,.y{mix-blend-mode:multiply;}.ab,.ac,.ad,.e,.g,.v,.y{isolation:isolate;}.ac,.g,.v{opacity:0.5;}.h{fill:#3ba6de;}.i{fill:#fff;}.ac,.j{fill:#ffb127;}.k{fill:#fa5505;}.l{fill:#fca635;}.n{stroke-width:1.111px;}.o{fill:#ffd4fe;}.p,.y{fill:#ed9c80;}.q{fill:#3a3a3a;}.r{fill:#262626;}.s{fill:#2c1e56;}.t{fill:#170d54;}.u{fill:#eaeaea;}.v{fill:#3d38a0;}.w{fill:#ffbe9d;}.x{fill:#f9aaf9;}.y{opacity:0.3;}.ab,.z{fill:#ffc25b;}.aa{fill:#ffe7c5;}.ad{opacity:0.1;mix-blend-mode:screen;}.ae{fill:#efefff;}.af{fill:#fc9;}.ag{fill:#d8836c;}</style></defs><g transform="translate(-61.724 -33.609)"><g transform="translate(63.429 35.314)"><path class="a" d="M527.4,272.748c0,122.1-98.981,221.081-221.081,221.081S85.241,394.848,85.241,272.748A221.028,221.028,0,0,1,306.321,51.667C428.421,51.667,527.4,150.648,527.4,272.748Z" transform="translate(-57.825 -31.113)"/><ellipse class="b" cx="221.081" cy="231.489" rx="221.081" ry="231.489"/><path class="c" d="M532.462,273.945c0,127.848-95.6,217.882-213.52,217.882S105.424,401.793,105.424,273.945s95.6-231.49,213.518-231.49S532.462,146.1,532.462,273.945Z" transform="translate(-52.639 -33.479)"/><g transform="translate(32.68 46.419)"><g transform="translate(46.362 14.178)"><g transform="translate(34.971 1.921)"><path class="d" d="M154.258,87.4a1.713,1.713,0,1,1,2.225.959A1.714,1.714,0,0,1,154.258,87.4Z" transform="translate(-154.137 -85.053)"/></g><g transform="translate(321.862 93.634)"><path class="d" d="M382.508,160.367a1.713,1.713,0,1,1,2.224.959A1.713,1.713,0,0,1,382.508,160.367Z" transform="translate(-382.386 -158.02)"/></g><g transform="translate(0 93.634)"><path class="d" d="M126.436,160.367a1.713,1.713,0,1,1,2.223.959A1.713,1.713,0,0,1,126.436,160.367Z" transform="translate(-126.314 -158.02)"/></g><g transform="translate(274.586)"><path class="d" d="M344.895,85.87a1.713,1.713,0,1,1,2.225.96A1.712,1.712,0,0,1,344.895,85.87Z" transform="translate(-344.773 -83.525)"/></g><g transform="translate(9.339 233.673)"><path class="d" d="M133.866,271.779a1.713,1.713,0,1,1,2.223.96A1.712,1.712,0,0,1,133.866,271.779Z" transform="translate(-133.744 -269.434)"/></g><g transform="translate(354.438 205.383)"><path class="d" d="M408.425,249.274a1.713,1.713,0,1,1,2.225.959A1.713,1.713,0,0,1,408.425,249.274Z" transform="translate(-408.303 -246.927)"/></g></g><g transform="translate(172.331)"><g transform="translate(3.433)"><path class="d" d="M229.894,80.367a.627.627,0,0,1-.628-.628V72.873a.628.628,0,1,1,1.257,0v6.865A.628.628,0,0,1,229.894,80.367Z" transform="translate(-229.266 -72.245)"/></g><g transform="translate(0 3.433)"><path class="d" d="M234.029,76.233h-6.865a.628.628,0,0,1,0-1.257h6.865a.628.628,0,1,1,0,1.257Z" transform="translate(-226.535 -74.976)"/></g></g><g transform="translate(405.419 159.908)"><g transform="translate(3.434)"><path class="d" d="M415.339,207.589a.629.629,0,0,1-.628-.628V200.1a.628.628,0,1,1,1.257,0v6.865A.629.629,0,0,1,415.339,207.589Z" transform="translate(-414.71 -199.467)"/></g><g transform="translate(0 3.433)"><path class="d" d="M419.473,203.455h-6.867a.628.628,0,1,1,0-1.257h6.867a.628.628,0,0,1,0,1.257Z" transform="translate(-411.978 -202.198)"/></g></g><g transform="translate(369.436 284.137)"><g transform="translate(3.431)"><path class="d" d="M386.708,306.426a.629.629,0,0,1-.628-.628v-6.867a.628.628,0,0,1,1.257,0V305.8A.629.629,0,0,1,386.708,306.426Z" transform="translate(-386.08 -298.303)"/></g><g transform="translate(0 3.433)"><path class="d" d="M390.843,302.291h-6.864a.628.628,0,1,1,0-1.257h6.864a.628.628,0,0,1,0,1.257Z" transform="translate(-383.35 -301.034)"/></g></g><g transform="translate(0 171.526)"><g transform="translate(3.433)"><path class="d" d="M92.788,216.832a.628.628,0,0,1-.628-.628v-6.865a.628.628,0,1,1,1.257,0V216.2A.628.628,0,0,1,92.788,216.832Z" transform="translate(-92.16 -208.71)"/></g><g transform="translate(0 3.433)"><path class="d" d="M96.923,212.7H90.057a.628.628,0,0,1,0-1.257h6.865a.628.628,0,1,1,0,1.257Z" transform="translate(-89.429 -211.441)"/></g></g></g></g><g transform="translate(67.849 99.339)"><g transform="translate(0 107.418)"><path class="e" d="M419.648,409.016c0,3.2-62.175,5.794-138.87,5.794s-138.868-2.594-138.868-5.794,62.174-5.794,138.868-5.794S419.648,405.816,419.648,409.016Z" transform="translate(-47.685 -112.234)"/><g transform="translate(341.668 161.555)"><path class="f" d="M366.717,427c.07.1.317-8.069,12.558-15.376,12.47-7.79,38.4-5.216,42.111-13.253,3.89-8.61-12.518-7.457-19.24-14.315-6.779-7.01-9-10.195.9-11.628,9.849-1.276,15.784-1.775,16.19-9.867.416-8.188,16.26-3.365,24.629-8.91,8.62-5.53,4.514-13.8-11.218-14.2-15.479-.009-15.9-2.583-11.32-4.724,4.506-2.124,18.238-5.471,12.739-9.974-5.651-4.559-14.434-1.266-9.589-6.266,4.79-5.045,15.791-8.281,10.85-14.323-4.923-6.112-18.5-6.3-27.005,8.41-8.341,14.672-11.081,18.741-18.611,19.988-7.343,1.322-13.8-6.9-22.911-4.145-9.045,2.865-7.814,11.449-2.824,17.374,5.123,5.945,13.567,17.648,7.809,22.363-5.551,4.766-11.566-3.038-19.221-4.8-8.5-1.956-18.641,4.854-11.212,17.035,7.753,12.029,20.16,21.85,18.995,48.626Q363.515,427.943,366.717,427Z" transform="translate(-338.774 -300.246)"/><path class="g" d="M346.389,369.948a.465.465,0,0,1,.651-.013c.161.155,15.71,15.282,21.2,33.5q.865-2.523,1.743-4.966a.4.4,0,0,1,.02-.058,355.579,355.579,0,0,1,17.315-40.621,181.811,181.811,0,0,0-23.312-25.368.461.461,0,1,1,.611-.69,183.187,183.187,0,0,1,23.168,25.147q1.3-2.555,2.6-4.974a.45.45,0,0,1,.209-.39c4.081-7.614,8.057-14.215,11.779-19.878a.432.432,0,0,1,.206-.362l.05-.029c13.078-19.805,22.966-28.022,23.163-28.18a.46.46,0,0,1,.578.715c-.19.153-9.527,7.915-22.041,26.559a52.6,52.6,0,0,1,24.643-5.163.449.449,0,0,1,.425.493.461.461,0,0,1-.494.425c-.135-.01-13.581-.914-25.651,5.866-3.61,5.48-7.462,11.848-11.422,19.181,21.941-6.145,45.166-4.309,45.4-4.289a.439.439,0,0,1,.42.5.46.46,0,0,1-.5.42c-.236-.02-23.9-1.9-45.929,4.5a345.056,345.056,0,0,0-20.049,45.614c15.455-5.133,39.345-3.9,39.589-3.889a.456.456,0,0,1,.434.485.461.461,0,0,1-.485.434c-.246-.013-24.687-1.275-39.936,4.075-3.14,8.791-6.193,18.284-9.089,28.53a.459.459,0,0,1-.523.327.327.327,0,0,1-.045-.01.46.46,0,0,1-.317-.568q3.337-11.81,6.924-22.309c-5.057-18.535-21.16-34.2-21.324-34.357A.46.46,0,0,1,346.389,369.948Z" transform="translate(-336.851 -299.547)"/></g><g transform="translate(19.667)"><g transform="translate(16.175 9.913)"><path class="f" d="M177.419,349.65c1.976-65.256-29.428-129.875-81.958-168.641L96.5,179.6c52.986,39.1,84.662,104.283,82.668,170.1Z" transform="translate(-95.461 -179.6)"/></g><path class="f" d="M110.052,190.906A38.494,38.494,0,0,0,90.4,172.695c-2.071-.846-4.5-1.489-6.472-.425a2.513,2.513,0,0,0-1.234,1.312,3.211,3.211,0,0,0,.758,2.756c3.022,4.29,8.027,6.706,12.968,8.477s8.405,3.756,13.634,6.091" transform="translate(-82.592 -171.713)"/><g transform="translate(8.8 23.179)"><path class="f" d="M121.586,199.084a38.5,38.5,0,0,0-25.265-8.923c-2.236.044-4.726.419-6.11,2.177a2.513,2.513,0,0,0-.612,1.694,3.212,3.212,0,0,0,1.789,2.229c4.476,2.741,10.028,2.973,15.267,2.641s9.2.112,14.932.182" transform="translate(-89.594 -190.154)"/></g><g transform="translate(25.537 38.198)"><path class="f" d="M134.04,214.146A38.493,38.493,0,0,0,110.056,202.2c-2.225-.23-4.741-.162-6.33,1.413a2.516,2.516,0,0,0-.814,1.606,3.214,3.214,0,0,0,1.5,2.432c4.108,3.267,9.59,4.175,14.829,4.486s9.123,1.238,14.8,2.007" transform="translate(-102.91 -202.103)"/></g><g transform="translate(38.575 57.816)"><path class="f" d="M144.413,229.754a38.5,38.5,0,0,0-23.985-11.945c-2.226-.23-4.741-.162-6.33,1.413a2.5,2.5,0,0,0-.814,1.606,3.211,3.211,0,0,0,1.5,2.432c4.108,3.267,9.589,4.175,14.829,4.486s9.121,1.238,14.8,2.007" transform="translate(-113.282 -217.711)"/></g><g transform="translate(53.431 83.194)"><path class="f" d="M155.159,252.607a38.505,38.505,0,0,0-22.618-14.365c-2.19-.459-4.7-.652-6.443.749a2.5,2.5,0,0,0-.975,1.515,3.21,3.21,0,0,0,1.241,2.574c3.748,3.674,9.106,5.147,14.285,6s8.946,2.176,14.511,3.529" transform="translate(-125.102 -237.902)"/></g><g transform="translate(62.841 102.985)"><path class="f" d="M161.242,269.876a41.077,41.077,0,0,0-21.057-15.456c-2.123-.7-4.588-1.205-6.439-.239a2.071,2.071,0,0,0-1.1,1.168,2.753,2.753,0,0,0,.993,2.383c3.371,3.674,8.536,5.676,13.58,7.118s8.649,3.1,14.029,5.026" transform="translate(-132.588 -253.647)"/></g><g transform="translate(39.807 4.412)"><path class="f" d="M120.986,209.172a41.7,41.7,0,0,0,1.134-28.047c-.7-2.26-1.8-4.688-3.905-5.625a2.457,2.457,0,0,0-1.816-.168,3.193,3.193,0,0,0-1.621,2.411c-1.318,5.279.1,10.98,1.97,16.212s2.614,9.382,4.24,15.218" transform="translate(-114.263 -175.224)"/></g><g transform="translate(57.585 18.814)"><path class="f" d="M129.2,220.649a41.7,41.7,0,0,0,7.8-26.965c-.143-2.363-.63-4.982-2.45-6.394a2.46,2.46,0,0,0-1.723-.6c-.984.109-1.67,1.047-2.151,1.954-2.54,4.811-2.524,10.686-1.957,16.214s.3,9.732.485,15.788" transform="translate(-128.407 -186.682)"/></g><g transform="translate(71.351 40.664)"><path class="f" d="M139.359,236.619a41.7,41.7,0,0,0,13.033-24.861c.331-2.344.378-5.009-1.122-6.756a2.462,2.462,0,0,0-1.567-.93,3.2,3.2,0,0,0-2.5,1.486c-3.452,4.206-4.612,9.965-5.161,15.494s-1.654,9.6-2.684,15.567" transform="translate(-139.359 -204.065)"/></g><g transform="translate(84.111 66.8)"><path class="f" d="M150.787,258.9a41.7,41.7,0,0,0,7.195-27.132c-.2-2.359-.742-4.967-2.592-6.339a2.463,2.463,0,0,0-1.736-.558c-.982.131-1.647,1.083-2.107,2-2.433,4.867-2.286,10.74-1.6,16.253s.515,9.725.836,15.774" transform="translate(-149.511 -224.859)"/></g><g transform="translate(92.161 92.918)"><path class="f" d="M155.915,274.83a41.7,41.7,0,0,0,18.638-20.988c.886-2.195,1.575-4.769.539-6.826a2.461,2.461,0,0,0-1.3-1.281,3.2,3.2,0,0,0-2.782.84c-4.364,3.25-6.877,8.561-8.742,13.795s-3.918,8.915-6.355,14.461" transform="translate(-155.915 -245.639)"/></g></g><g transform="translate(323.553 1.311)"><g transform="translate(22.765 12.364)"><path class="f" d="M348.834,364.747c-14.108-63.742,4.7-133.084,49.078-180.965l-1.283-1.189c-44.765,48.295-63.735,118.239-49.5,182.534Z" transform="translate(-342.474 -182.593)"/></g><g transform="translate(68.583)"><path class="f" d="M378.927,196.147a38.489,38.489,0,0,1,15.914-21.556c1.877-1.218,4.148-2.3,6.28-1.625a2.514,2.514,0,0,1,1.457,1.061,3.211,3.211,0,0,1-.23,2.848c-2.169,4.779-6.637,8.085-11.16,10.747s-7.558,5.255-12.26,8.526" transform="translate(-378.927 -172.756)"/></g><g transform="translate(57.893 24.854)"><path class="f" d="M370.422,206.243a38.493,38.493,0,0,1,23.158-13.478c2.206-.373,4.721-.469,6.408,1a2.509,2.509,0,0,1,.918,1.551,3.213,3.213,0,0,1-1.34,2.524c-3.888,3.527-9.3,4.79-14.507,5.44s-9.022,1.826-14.636,2.964" transform="translate(-370.422 -192.53)"/></g><g transform="translate(45.676 42.525)"><path class="f" d="M360.7,223.4A38.494,38.494,0,0,1,382.038,207.2c2.144-.64,4.629-1.043,6.483.209a2.506,2.506,0,0,1,1.1,1.427A3.209,3.209,0,0,1,388.6,211.5c-3.426,3.976-8.643,5.891-13.732,7.172s-8.732,2.917-14.164,4.732" transform="translate(-360.702 -206.589)"/></g><g transform="translate(36.524 64.23)"><path class="f" d="M353.421,240.672a38.5,38.5,0,0,1,21.338-16.208c2.143-.64,4.628-1.043,6.482.209a2.5,2.5,0,0,1,1.1,1.427,3.208,3.208,0,0,1-1.022,2.668c-3.426,3.976-8.643,5.891-13.733,7.173s-8.732,2.916-14.164,4.731" transform="translate(-353.421 -223.857)"/></g><g transform="translate(28.212 91.825)"><path class="f" d="M346.808,265.15a38.49,38.49,0,0,1,19.544-18.331c2.065-.858,4.495-1.517,6.468-.465a2.506,2.506,0,0,1,1.242,1.306,3.208,3.208,0,0,1-.74,2.76c-3,4.309-7.986,6.755-12.916,8.556s-8.382,3.806-13.6,6.174" transform="translate(-346.808 -245.812)"/></g><g transform="translate(24.319 112.863)"><path class="f" d="M343.711,283.283a41.088,41.088,0,0,1,17.807-19.11c1.956-1.08,4.282-2.04,6.282-1.437a2.074,2.074,0,0,1,1.3.941,2.753,2.753,0,0,1-.53,2.526c-2.627,4.238-7.328,7.168-12.015,9.525s-7.919,4.657-12.846,7.554" transform="translate(-343.711 -262.549)"/></g><g transform="translate(46.806 11.653)"><path class="f" d="M368.215,216.152a41.705,41.705,0,0,1-6.342-27.343c.27-2.352.9-4.942,2.789-6.254a2.458,2.458,0,0,1,1.752-.5c.977.162,1.613,1.134,2.043,2.066,2.28,4.941,1.949,10.806,1.087,16.295s-.82,9.7-1.329,15.74" transform="translate(-361.601 -182.028)"/></g><g transform="translate(31.624 29.464)"><path class="f" d="M362.366,228.889A41.7,41.7,0,0,1,349.68,203.85c-.3-2.348-.31-5.013,1.215-6.738a2.458,2.458,0,0,1,1.581-.909,3.191,3.191,0,0,1,2.476,1.52c3.394,4.253,4.473,10.028,4.946,15.564s1.521,9.618,2.467,15.6" transform="translate(-349.522 -196.198)"/></g><g transform="translate(17.277 54.537)"><path class="f" d="M356.365,246.261a41.712,41.712,0,0,1-17.439-21.995c-.763-2.241-1.306-4.85-.157-6.846a2.46,2.46,0,0,1,1.366-1.207,3.2,3.2,0,0,1,2.731.993c4.175,3.489,6.389,8.932,7.96,14.261s3.414,9.12,5.538,14.794" transform="translate(-338.108 -216.146)"/></g><g transform="translate(14.657 81.509)"><path class="f" d="M348.262,270.5a41.7,41.7,0,0,1-12.127-25.314c-.246-2.354-.2-5.018,1.365-6.709a2.462,2.462,0,0,1,1.6-.874,3.2,3.2,0,0,1,2.443,1.574c3.3,4.329,4.248,10.126,4.6,15.671s1.307,9.649,2.12,15.652" transform="translate(-336.024 -237.605)"/></g><g transform="translate(0 111.074)"><path class="f" d="M348.568,286.619a41.7,41.7,0,0,1-22.224-17.146c-1.281-1.991-2.436-4.392-1.8-6.606a2.464,2.464,0,0,1,1.036-1.5,3.2,3.2,0,0,1,2.891.307c4.892,2.379,8.351,7.128,11.16,11.923s5.51,8.028,8.939,13.023" transform="translate(-324.363 -261.126)"/></g></g><path class="f" d="M330.059,366.787a38.9,38.9,0,0,1,30.059-10.148c7.347.742,15.358,4.667,16.976,11.872.769,3.431.5,7.984,3.748,9.333,3.179,1.32,6.249-1.956,9.512-3.049,5.432-1.823,11.63,4.388,9.8,9.817-.833,2.469-2.921,4.619-2.748,7.219.236,3.541,4.612,5.386,8.117,4.837s6.6-2.6,10.038-3.472,7.891,0,9.1,3.338c1.082,2.99-.786,7.007,1.564,9.152a6.4,6.4,0,0,0,3.819,1.237c29.771,2.827,62.559,8.167,59.227,13.457-.911,1.445-3.239.985-4.947.959-63.368-.992-120.34-1.009-184.273-.974" transform="translate(-7.057 -124.25)"/><g transform="translate(27.75 168.627)"><path class="f" d="M170.6,432.623c-.07.1-.317-8.071-12.558-15.377-12.47-7.79-38.4-5.215-42.111-13.253-3.89-8.609,12.518-7.457,19.24-14.315,6.779-7.01,9-10.194-.9-11.627-9.849-1.276-15.784-1.776-16.19-9.867-.416-8.189-16.26-3.366-24.629-8.91-8.62-5.532-4.514-13.8,11.218-14.2,15.479-.009,15.9-2.584,11.32-4.725-4.506-2.123-18.238-5.471-12.739-9.972,5.651-4.559,14.434-1.266,9.589-6.266-4.79-5.047-15.791-8.281-10.85-14.323,4.923-6.112,18.5-6.3,27,8.41,8.341,14.672,11.081,18.741,18.611,19.988,7.343,1.322,13.8-6.9,22.911-4.147,9.045,2.866,7.814,11.449,2.824,17.374-5.123,5.945-13.567,17.648-7.809,22.363,5.549,4.768,11.566-3.037,19.221-4.8,8.5-1.956,18.641,4.854,11.212,17.034-7.753,12.03-19.2,15.992-18.038,42.768C175.81,428.066,172.73,433.254,170.6,432.623Z" transform="translate(-89.023 -305.872)"/><path class="g" d="M187.218,375.572a.464.464,0,0,0-.651-.011c-.161.153-15.71,15.282-21.2,33.5q-.867-2.521-1.743-4.966a.444.444,0,0,0-.02-.058,355.761,355.761,0,0,0-17.315-40.621A181.832,181.832,0,0,1,169.6,338.05a.461.461,0,1,0-.611-.69,183.2,183.2,0,0,0-23.168,25.146q-1.3-2.555-2.6-4.974a.447.447,0,0,0-.209-.388c-4.081-7.616-8.057-14.215-11.779-19.878a.434.434,0,0,0-.206-.363l-.05-.028c-13.078-19.807-22.966-28.023-23.163-28.181a.46.46,0,0,0-.578.716c.19.152,9.527,7.915,22.041,26.557a52.614,52.614,0,0,0-24.643-5.163.45.45,0,0,0-.425.494.461.461,0,0,0,.494.425c.134-.011,13.581-.914,25.651,5.865,3.61,5.48,7.462,11.848,11.422,19.181-21.941-6.145-45.166-4.307-45.4-4.287a.439.439,0,0,0-.419.5.459.459,0,0,0,.5.419c.236-.02,23.9-1.9,45.929,4.5a345.031,345.031,0,0,1,20.049,45.612c-15.455-5.133-39.345-3.9-39.589-3.889a.46.46,0,0,0,.05.919c.248-.013,24.688-1.273,39.937,4.075,3.14,8.791,5.63,16.309,8.526,26.554.064.23.386.853.616.812.015,0,.063-.186.079-.191.244-.069.62.192.549-.052-2.223-7.873-4.34-14.14-6.721-21.153,5.057-18.536,21.16-34.2,21.324-34.357A.462.462,0,0,0,187.218,375.572Z" transform="translate(-87.242 -305.173)"/></g><path class="f" d="M226.389,366.787a38.9,38.9,0,0,0-30.059-10.148c-7.347.742-15.358,4.667-16.976,11.872-.769,3.431-.5,7.984-3.748,9.333-3.179,1.32-6.249-1.956-9.512-3.049-5.432-1.823-11.63,4.388-9.8,9.817.833,2.469,2.922,4.619,2.749,7.219-.236,3.541-4.612,5.386-8.117,4.837s-6.6-2.6-10.038-3.472-7.891,0-9.1,3.338c-1.082,2.99.786,7.007-1.564,9.152a6.4,6.4,0,0,1-3.819,1.237c-29.771,2.827-62.559,8.167-59.227,13.457.91,1.445,3.238.985,4.947.959,63.368-.992,120.34-1.009,184.273-.974" transform="translate(-66.945 -124.25)"/></g><g transform="translate(101.753)"><rect class="h" width="262.68" height="371.402" rx="6.941" transform="translate(0 32.735)"/><rect class="f" width="232.23" height="342.269" rx="4.006" transform="translate(15.225 47.301)"/><rect class="i" width="214.371" height="321.356" rx="4.961" transform="translate(24.155 57.758)"/><g transform="translate(46.848)"><g transform="translate(73.201)"><path class="j" d="M257.345,86.252a13.936,13.936,0,0,0-13.935,13.935v17.861h27.872V100.187A13.936,13.936,0,0,0,257.345,86.252Zm0,21.933a7.819,7.819,0,1,1,7.819-7.819A7.819,7.819,0,0,1,257.345,108.185Z" transform="translate(-243.41 -86.252)"/><path class="k" d="M265.165,100.255a7.645,7.645,0,0,0-8.993-7.7,5.723,5.723,0,0,1,3.172-.76,7.821,7.821,0,0,1,7.819,7.819c0,3.917-2,6.037-5.016,6.813A8.553,8.553,0,0,0,265.165,100.255Zm-17.5,15.9V98.293a13.6,13.6,0,0,1,5.858-11.609,13.931,13.931,0,0,0-10.116,13.392v17.861h27.872v-1.782Z" transform="translate(-243.41 -86.141)"/></g><path class="l" d="M354.15,119.19V133.15H185.172V119.19a9.8,9.8,0,0,1,9.8-9.8h149.38A9.8,9.8,0,0,1,354.15,119.19Z" transform="translate(-185.172 -80.307)"/><path class="k" d="M354.15,129.659v3.49H185.172V119.19a9.8,9.8,0,0,1,9.8-9.8h1.355a14.672,14.672,0,0,0-4.62,10.163v10.106Z" transform="translate(-185.172 -80.307)"/></g><g transform="translate(39.924 74.492)"><g class="m" transform="translate(41.502 15.25)"><path class="d" d="M249.682,162.008H214.86a2.179,2.179,0,0,1,0-4.358h34.822a2.179,2.179,0,0,1,0,4.358Z" transform="translate(-212.682 -157.65)"/><g transform="translate(112.965 11.101)"><path class="d" d="M331.211,170.84H304.734a2.179,2.179,0,0,1,0-4.358h26.477a2.179,2.179,0,1,1,0,4.358Z" transform="translate(-302.556 -166.482)"/></g><g transform="translate(0 11.101)"><path class="d" d="M316.352,170.84H214.86a2.179,2.179,0,0,1,0-4.358H316.352a2.179,2.179,0,0,1,0,4.358Z" transform="translate(-212.682 -166.482)"/></g><g transform="translate(0 22.204)"><path class="d" d="M354.3,179.673H214.86a2.179,2.179,0,0,1,0-4.358H354.3a2.179,2.179,0,1,1,0,4.358Z" transform="translate(-212.682 -175.315)"/></g><g transform="translate(95.119 33.305)"><path class="d" d="M334.859,188.5H290.538a2.179,2.179,0,1,1,0-4.358h44.322a2.179,2.179,0,1,1,0,4.358Z" transform="translate(-288.358 -184.147)"/></g><g transform="translate(0 33.305)"><path class="d" d="M298.947,188.5H214.86a2.179,2.179,0,0,1,0-4.358h84.087a2.179,2.179,0,1,1,0,4.358Z" transform="translate(-212.682 -184.147)"/></g><g transform="translate(46.248)"><path class="d" d="M344.848,162.008H251.655a2.179,2.179,0,0,1,0-4.358h93.193a2.179,2.179,0,1,1,0,4.358Z" transform="translate(-249.477 -157.65)"/></g><g transform="translate(0 79.806)"><path class="d" d="M249.682,225.5H214.86a2.179,2.179,0,0,1,0-4.358h34.822a2.179,2.179,0,0,1,0,4.358Z" transform="translate(-212.682 -221.143)"/><g transform="translate(112.965 11.101)"><path class="d" d="M331.211,234.333H304.734a2.179,2.179,0,0,1,0-4.358h26.477a2.179,2.179,0,1,1,0,4.358Z" transform="translate(-302.556 -229.975)"/></g><g transform="translate(0 11.101)"><path class="d" d="M316.352,234.333H214.86a2.179,2.179,0,0,1,0-4.358H316.352a2.179,2.179,0,0,1,0,4.358Z" transform="translate(-212.682 -229.975)"/></g><g transform="translate(0 22.202)"><path class="d" d="M354.3,243.165H214.86a2.179,2.179,0,0,1,0-4.358H354.3a2.179,2.179,0,1,1,0,4.358Z" transform="translate(-212.682 -238.807)"/></g><g transform="translate(95.119 33.305)"><path class="d" d="M334.859,252H290.538a2.179,2.179,0,1,1,0-4.358h44.322a2.179,2.179,0,1,1,0,4.358Z" transform="translate(-288.358 -247.64)"/></g><g transform="translate(0 33.305)"><path class="d" d="M298.947,252H214.86a2.179,2.179,0,0,1,0-4.358h84.087a2.179,2.179,0,1,1,0,4.358Z" transform="translate(-212.682 -247.64)"/></g><g transform="translate(46.248)"><path class="d" d="M344.848,225.5H251.655a2.179,2.179,0,0,1,0-4.358h93.193a2.179,2.179,0,1,1,0,4.358Z" transform="translate(-249.477 -221.143)"/></g></g><g transform="translate(0 156.819)"><path class="d" d="M249.682,286.772H214.86a2.179,2.179,0,0,1,0-4.358h34.822a2.179,2.179,0,0,1,0,4.358Z" transform="translate(-212.682 -282.414)"/><g transform="translate(112.965 11.101)"><path class="d" d="M331.211,295.6H304.734a2.179,2.179,0,0,1,0-4.358h26.477a2.179,2.179,0,1,1,0,4.358Z" transform="translate(-302.556 -291.246)"/></g><g transform="translate(0 11.101)"><path class="d" d="M316.352,295.6H214.86a2.179,2.179,0,0,1,0-4.358H316.352a2.179,2.179,0,0,1,0,4.358Z" transform="translate(-212.682 -291.246)"/></g><g transform="translate(0 22.204)"><path class="d" d="M354.3,304.437H214.86a2.179,2.179,0,0,1,0-4.358H354.3a2.179,2.179,0,1,1,0,4.358Z" transform="translate(-212.682 -300.079)"/></g><g transform="translate(95.119 33.306)"><path class="d" d="M334.859,313.268H290.538a2.178,2.178,0,1,1,0-4.357h44.322a2.178,2.178,0,1,1,0,4.357Z" transform="translate(-288.358 -308.912)"/></g><g transform="translate(0 33.306)"><path class="d" d="M298.947,313.268H214.86a2.178,2.178,0,1,1,0-4.357h84.087a2.178,2.178,0,1,1,0,4.357Z" transform="translate(-212.682 -308.912)"/></g><g transform="translate(46.248)"><path class="d" d="M344.848,286.772H251.655a2.179,2.179,0,0,1,0-4.358h93.193a2.179,2.179,0,1,1,0,4.358Z" transform="translate(-249.477 -282.414)"/></g></g><g transform="translate(0 235.228)"><path class="d" d="M249.682,349.154H214.86a2.179,2.179,0,0,1,0-4.358h34.822a2.179,2.179,0,0,1,0,4.358Z" transform="translate(-212.682 -344.796)"/><g transform="translate(112.965 11.101)"><path class="d" d="M331.211,357.986H304.734a2.179,2.179,0,0,1,0-4.358h26.477a2.179,2.179,0,1,1,0,4.358Z" transform="translate(-302.556 -353.628)"/></g><g transform="translate(0 11.101)"><path class="d" d="M316.352,357.986H214.86a2.179,2.179,0,0,1,0-4.358H316.352a2.179,2.179,0,0,1,0,4.358Z" transform="translate(-212.682 -353.628)"/></g><g transform="translate(0 22.204)"><path class="d" d="M354.3,366.819H214.86a2.179,2.179,0,0,1,0-4.358H354.3a2.179,2.179,0,1,1,0,4.358Z" transform="translate(-212.682 -362.461)"/></g><g transform="translate(95.119 33.305)"><path class="d" d="M334.859,375.651H290.538a2.179,2.179,0,1,1,0-4.358h44.322a2.179,2.179,0,1,1,0,4.358Z" transform="translate(-288.358 -371.293)"/></g><g transform="translate(0 33.305)"><path class="d" d="M298.947,375.651H214.86a2.179,2.179,0,0,1,0-4.358h84.087a2.179,2.179,0,1,1,0,4.358Z" transform="translate(-212.682 -371.293)"/></g><g transform="translate(46.248)"><path class="d" d="M344.848,349.154H251.655a2.179,2.179,0,0,1,0-4.358h93.193a2.179,2.179,0,1,1,0,4.358Z" transform="translate(-249.477 -344.796)"/></g></g></g><rect class="n" width="31.923" height="31.923" rx="2.102" transform="translate(0 14.079)"/><rect class="n" width="31.923" height="31.923" rx="2.102" transform="translate(0 93.625)"/><rect class="n" width="31.923" height="31.923" rx="2.102" transform="translate(0 173.171)"/><rect class="n" width="31.923" height="31.923" rx="2.102" transform="translate(0 252.717)"/><g transform="translate(1.506)"><path class="l" d="M195.317,186.891a2.419,2.419,0,0,1-1.865-.877l-12.034-14.531a2.422,2.422,0,0,1,3.731-3.09l9.907,11.963,21.368-33.714a2.422,2.422,0,1,1,4.091,2.593l-23.152,36.53a2.419,2.419,0,0,1-1.892,1.121C195.419,186.89,195.367,186.891,195.317,186.891Z" transform="translate(-180.861 -145.517)"/></g><g transform="translate(1.506 78.884)"><path class="l" d="M195.317,249.651a2.423,2.423,0,0,1-1.865-.877l-12.034-14.531a2.422,2.422,0,1,1,3.731-3.09l9.907,11.963L216.423,209.4a2.422,2.422,0,1,1,4.091,2.593l-23.152,36.53a2.422,2.422,0,0,1-1.892,1.121C195.419,249.65,195.367,249.651,195.317,249.651Z" transform="translate(-180.861 -208.277)"/></g><g transform="translate(1.506 158.111)"><path class="l" d="M195.317,312.683a2.424,2.424,0,0,1-1.865-.877l-12.034-14.531a2.422,2.422,0,1,1,3.731-3.089l9.907,11.963,21.368-33.714a2.422,2.422,0,1,1,4.091,2.593l-23.152,36.53a2.419,2.419,0,0,1-1.892,1.121C195.419,312.682,195.367,312.683,195.317,312.683Z" transform="translate(-180.861 -271.31)"/></g></g></g></g><g transform="translate(81.629 289.233)"><g transform="translate(143.773 64.934)"><path class="o" d="M248.844,322.751c-3.744,4.022-6.384,29.792-6.482,30.748s-18.951,11.565-18.951,11.565l2.655,3.037s20.089-5.06,23.7-9.429c3.064-3.707,10.147-34,10.147-34S255.054,316.077,248.844,322.751Z" transform="translate(-184.299 -280.971)"/><ellipse class="a" cx="56.16" cy="3.845" rx="56.16" ry="3.845" transform="translate(37.65 211.605)"/><g transform="translate(118.098 195.387)"><path class="p" d="M289.689,448.061a36.806,36.806,0,0,0,2.269,4.057c.76.974,4.062-1.232,4.085-2.03s-2.932-5.647-2.932-5.647" transform="translate(-285.369 -444.441)"/><path class="q" d="M298.389,449.353c.714,1.071,1.885,3.2,1.885,3.2l-2.915,2.816-.762-.347a6.968,6.968,0,0,1-1.365,2.283,15.049,15.049,0,0,1-3.014,2.177c-2.9,1.433-5.336,1.649-5.667,1.281-1.386-1.541,2.454-3.48,3.174-3.986a5.84,5.84,0,0,0,2.416-5.319c-.157-1.014-.442-1.1.08-1.256a1.268,1.268,0,0,1,1.014.108,2.264,2.264,0,0,0,2.667-.3,2.853,2.853,0,0,0,.857-1.5A1.6,1.6,0,0,1,298.389,449.353Z" transform="translate(-286.252 -443.402)"/></g><g transform="translate(55.56 202.702)"><path class="p" d="M245.641,452.707a8.663,8.663,0,0,0-.65,3.023c.093,1.2,4.084,1.291,4.548.667s.7-6.136.7-6.136" transform="translate(-234.317 -450.261)"/><path class="q" d="M252.774,456.564a24.514,24.514,0,0,1-.363,3.291h-4.6l-.226-.735a7.457,7.457,0,0,1-2.662.735h-3.881c-2.841,0-4.453-.347-4.526-.826-.3-2,3.095-1.912,3.978-1.912,2.538,0,5.285-1.139,5.884-2.373.435-.9.243-1.122.768-.955a1.311,1.311,0,0,1,.788.652,2.352,2.352,0,0,0,2.4,1.253,2.824,2.824,0,0,0,1.555-.718A1.606,1.606,0,0,1,252.774,456.564Z" transform="translate(-236.497 -449.368)"/></g><path class="r" d="M269.719,391.627c-.028.168-3.754-4.1-3.795-3.923-1.482,7.472-8.376,32.461-10.665,39.017v.014A6.906,6.906,0,0,1,251.687,430c-3.367.877-8.739-.275-9.171-6.714-.054-.71.108-1.486.026-2.323-.959-9.92,8.527-53.65,8.77-56.438s5.714-.776,7.25-1.291C266.223,360.694,271.725,381.173,269.719,391.627Z" transform="translate(-179.401 -269.975)"/><path class="r" d="M255.787,419.8c-1.556-4.653.807-10.106.807-10.106s-13.228-10.171-13.9-3.963c-.067.49-.558,4.7-.557,7.069.005,8.488,2.955,35.371,2.739,51.786v1.071a32.847,32.847,0,0,0,6.087.4c.175,0,.363,0,.552-.013,1.1-10.223,3.5-24.124,4.632-38.109A32.048,32.048,0,0,0,255.787,419.8Z" transform="translate(-179.488 -259.515)"/><path class="r" d="M286.991,431.495c-2.6-3.423-5.347-4.955-6.16-7.562-1.889-6.062-1.378-30.65-1.557-37.475.537-1.4,5.546-15.353-4.619-25.635,0,0-9.14,4.152-16.459,4.653a35.669,35.669,0,0,1-8.689-.211s5.442,8.693,5.76,12.548c.539,6.547,12.1,46.088,12.981,48.256a25.9,25.9,0,0,0,4.96,7.888c5.124,7.061,17.118,21.909,26.212,36.13l.615.92a24.661,24.661,0,0,0,5.228-3.135C300.362,458.4,295.237,442.342,286.991,431.495Z" transform="translate(-177.595 -270.537)"/><path class="o" d="M243.763,323.292c1.856-2.13,9.825-5.424,17.7-5.175,5.429.171,22.684,1.948,24.335,5.579.845,1.856.763,19.476-.474,26.031-.929,4.93-3.738,17.594-3.738,20.542s1.584,4.209.845,5.065c-1.654,1.917-14.02,2.774-19.33,2.774-4.727,0-12.773-1.259-13.18-2.774-.606-2.249.921-2.164,1.129-4.52s1.321-17.9-.063-20.156c-2.2-3.585-5.534-13.746-5.7-16.448S241.905,325.423,243.763,323.292Z" transform="translate(-179.218 -281.513)"/><path class="p" d="M254.427,313.635s-.053,6.556-.317,6.821a10.355,10.355,0,0,1-1.56.876s.924,5.7,2.352,5.275,10.856-5.185,10.856-5.185-1.337-.543-1.337-1.072,1.27-10.84,1.27-10.84" transform="translate(-176.813 -283.72)"/><path class="r" d="M257.783,295.786a4,4,0,0,0-4.067-.27,5.931,5.931,0,0,0-2.777,3.145,4.68,4.68,0,0,0-.005,4A2.454,2.454,0,0,0,249.4,305a5.868,5.868,0,0,0,1.212,3.009,2.737,2.737,0,0,0,2.716,1.131,3.078,3.078,0,0,0,1.731-1.212,7.94,7.94,0,0,0,.975-1.917,52.916,52.916,0,0,0,2.638-9.636" transform="translate(-177.623 -287.426)"/><path class="p" d="M261.561,293.845c-1.374.376-5-.375-6,1.125s-1.873,5.121-2.249,6.12c-.745,1.988-1.232,4.115-1.773,6.165-.706,2.672-2.521,7.706.093,9.941a5.3,5.3,0,0,0,2.668.885c1.237.224,2.469.478,3.707.7,1.918.344,4.042.745,5.948.127,2.545-.827,3.942-4.326,4.6-6.7l3.747-13.614Z" transform="translate(-177.399 -287.745)"/><path class="p" d="M263.727,310.535a1.157,1.157,0,0,0,1.87,1.1,3.992,3.992,0,0,0,2.147-3.361c.112-1.614-.92-3.1-2.319-2.518A2.148,2.148,0,0,0,264.3,308" transform="translate(-173.943 -284.717)"/><path class="r" d="M270.6,307.359c-.442,1.351-1.6,4.424-2.829,4.126s.5-5.109,1.564-7.04c-1.547-.005-3.454-.244-4.011-1.687-.124-.324-.224-.744-.563-.818-.279-.06-.527.165-.765.32-1.085.7-2.565.015-3.43-.945-.2-.221-.429-.478-.724-.456a1,1,0,0,0-.485.235c-1.782,1.266-6.518,1.2-6.5-1.023-1.56.793-2.57-1.138-2.477-2.46s1.082-3.527,3.233-3.472c-.108-1.624,1.168-2.642,2.459-3.633A8.075,8.075,0,0,1,260.631,289c2.568-.117,5.489.943,6.365,3.358a.825.825,0,0,0,.287.465.793.793,0,0,0,.6-.006,6.216,6.216,0,0,1,5.7,1.131,4.318,4.318,0,0,1,.851,5.47,3.225,3.225,0,0,1,2.075,3.673,7.97,7.97,0,0,1-2.279,3.961,3.041,3.041,0,0,1,1.454,4.25,4.781,4.781,0,0,1-4.642,2.065c.391-1.546-.28-3.325-1.775-3.6" transform="translate(-177.373 -288.992)"/><path class="s" d="M254.448,324.358s-.52,24.13-1.5,38.809l3.548,4.894,2.438-6.129a186.567,186.567,0,0,0-2.308-37.406Z" transform="translate(-176.711 -279.906)"/><path class="t" d="M253.49,322.983l.084.332a6.707,6.707,0,0,0,.734,1.787h0l2.177.168s1.481-.776,1.677-1.609-2.43-2.2-2.43-2.2l-.319.126a4.725,4.725,0,0,0-1.9,1.364Z" transform="translate(-176.571 -280.65)"/><path class="u" d="M263.961,316.321a13.546,13.546,0,0,1,2.969,3,27.9,27.9,0,0,1-7.237,8.99,12.59,12.59,0,0,0-4.418-5.524S263.18,321.146,263.961,316.321Z" transform="translate(-176.113 -281.971)"/><path class="u" d="M256.184,322.694a9.355,9.355,0,0,0-4.331,4.116,20.735,20.735,0,0,1,.588-7.64s1.464-2.46,2.081-2.506C254.267,319.572,256.184,322.694,256.184,322.694Z" transform="translate(-177.023 -281.882)"/><path class="v" d="M253.652,425.823a10.971,10.971,0,0,1-.524-3.356c.026-.057.064-.121.083-.17v-.014c1.54-4.409,5.161-17.153,7.819-27.3l-4.123-14.695s-2.5,29.908-3.32,32.057-3.371,9.054-3.122,10.542,1.86,4.217,1.611,6.574-.211,23.486-.211,23.6c.816-6.107,1.616-12.592,2.144-19.1A32.05,32.05,0,0,0,253.652,425.823Z" transform="translate(-177.353 -265.536)"/><path class="w" d="M226.429,355.673a2.856,2.856,0,0,0-.714-2.4,5.172,5.172,0,0,0-2.088-1.3c-.2-.077-.483-.126-.6.057a.426.426,0,0,0,.043.44c.3.5.914.733,1.232,1.22a4.9,4.9,0,0,1,.284.59,2.577,2.577,0,0,0,1.848,1.389" transform="translate(-184.411 -272.827)"/><path class="x" d="M252.073,343.165s-3.135-7.758-3.7-10.959c-1.5,7.612-1,20.938-2.265,22.075s-13.885,8.33-13.885,8.33h0c5.962-1.873,13.245-4.558,15.284-7.022,1.151-1.394,2.871-6.541,4.568-12.425Z" transform="translate(-182.036 -277.89)"/><path class="y" d="M254.039,313.231s5.333,1.163,6.278,1.009-2.051,1.625-2.611,1.691-3.668-.362-3.668-.362Z" transform="translate(-176.43 -282.765)"/><path class="x" d="M284.376,322.646a2.028,2.028,0,0,0-.3-.45l-11.38,11.13c-2.711,7.22-8.117,26.217-8.117,26.217s-5.123,2.4-8.561,4.188c-.871.451-3.331,2.107-6.243,4.126-.062.867-.114,1.551-.146,1.907-.207,2.355-.53,2.34.075,4.589a44.9,44.9,0,0,1-.96,5.944c8.551-2.186,26.2-7.717,26.868-8.081,1-.544,6.2-21.442,9.206-34.133C285.279,330.356,284.994,324,284.376,322.646Z" transform="translate(-177.791 -280.461)"/><g transform="translate(0 15.765)"><path class="z" d="M192.294,301.535l20.523,10.931,66.836,95.454.617.882,6.222,9.13-16.343,11.435-6.635-9.722-1.338-1.9-65.7-93.843Z" transform="translate(-192.294 -301.535)"/><rect class="k" width="19.946" height="6.119" transform="translate(74.347 122.825) rotate(-35.012)"/><rect class="aa" width="19.946" height="6.119" transform="translate(70.836 117.803) rotate(-34.959)"/><path class="aa" d="M196.475,323.9l16.343-11.435-20.523-10.931Z" transform="translate(-192.294 -301.535)"/><path class="j" d="M193.79,309.539l5.6-4.225-7.1-3.78Z" transform="translate(-192.294 -301.535)"/><path class="k" d="M193.79,309.539l5.6-4.225-7.1-3.78Z" transform="translate(-192.294 -301.535)"/><path class="ab" d="M192.294,301.535l17.169,13.278,72.5,106.29,4.531-3.17L212.817,312.465Z" transform="translate(-192.294 -301.535)"/></g><g transform="translate(47.281 41.727)"><path class="p" d="M244.178,365.625s-2.446.764-3.71,1.129c-.823.239-4.736-.181-7.037.346a5.213,5.213,0,0,0-2.985,1.531,2.159,2.159,0,0,0,.175,3.035c.268.184.631.341.662.664a1.241,1.241,0,0,1-.113.476,1.266,1.266,0,0,0,1.84,1.476,2.139,2.139,0,0,0,1.982,2.045,1.708,1.708,0,0,1,.621-1.536,3.417,3.417,0,0,1,1.619-.333,4.361,4.361,0,0,0,2.609-1.241c.5-.5.862-1.1,1.315-1.639a6.611,6.611,0,0,1,3.631-2.176" transform="translate(-229.911 -311.031)"/><path class="o" d="M275.267,332.113c-1.053,3.013-6.64,29.541-6.64,29.541a50.8,50.8,0,0,0-8.9,3.156c-2.665,1.384-21.237,12.919-21.237,12.919l1.849,4.349s33.06-11.717,34.509-12.5,14.724-34.283,14.722-40.259c0-3.519-2.849-7.126-2.849-7.126" transform="translate(-227.707 -322.19)"/></g><path class="p" d="M224.175,360.455a2.216,2.216,0,0,1-2.313-1.811,1.752,1.752,0,0,0-.143-.626c-.19-.328-.616-.406-.975-.524a4.233,4.233,0,0,1-2.513-3.314,4.318,4.318,0,0,1,.067-2.288,2.387,2.387,0,0,1,1.584-1.562.716.716,0,0,1,.447,0,.816.816,0,0,1,.329.308,5.719,5.719,0,0,1,.887,1.931,2.382,2.382,0,0,0,.618,1.39,5.84,5.84,0,0,0,.949.43,2.751,2.751,0,0,1,1.124,1.712c.322,1.017-.222,3.3-.062,4.351" transform="translate(-185.661 -273.242)"/></g><g transform="translate(283.413 15.136)"><g transform="translate(0 14.047)"><path class="s" d="M304.95,302.888h31.444a1.557,1.557,0,0,1,1.5,1.146l4.94,18.061,9.561,5.02H317.724l-9.561-5.02-4.716-17.239A1.558,1.558,0,0,1,304.95,302.888Z" transform="translate(-303.391 -249.671)"/><path class="r" d="M308.52,321.72h34l-4.844-17.709a1.526,1.526,0,0,0-1.473-1.124H305.37a1.527,1.527,0,0,0-1.473,1.929Z" transform="translate(-303.275 -249.671)"/><path class="h" d="M304.518,304.435l.6,2.164v.014l3.546,12.94a1.583,1.583,0,0,0,1.535,1.173h28.98a1.6,1.6,0,0,0,1.536-2.024l-.195-.7-.656-2.4-.685-2.513L337.518,307l-.628-2.276a1.6,1.6,0,0,0-1.536-1.187H305.2a.687.687,0,0,0-.558.28A.7.7,0,0,0,304.518,304.435Z" transform="translate(-303.107 -249.503)"/><path class="r" d="M316.94,322.794h34l-9.376-4.922h-34Z" transform="translate(-302.318 -245.822)"/><path class="a" d="M383.747,421.545c0,1.3-11.965,2.355-26.726,2.355s-26.725-1.056-26.725-2.355,11.965-2.355,26.725-2.355S383.747,420.245,383.747,421.545Z" transform="translate(-296.478 -219.791)"/><g transform="translate(59.416 191.481)"><path class="p" d="M358.267,412.89s.111,4.491.195,5.636,3.732,1.229,4.155.636.636-5.851.636-5.851" transform="translate(-348.707 -412.89)"/><path class="q" d="M365.535,419.234a24.368,24.368,0,0,1-.332,3.138H361l-.206-.7a6.605,6.605,0,0,1-2.433.7h-3.546c-2.6,0-4.071-.331-4.137-.788-.274-1.909,2.828-1.823,3.635-1.823,2.319,0,4.829-1.086,5.377-2.262.4-.855.221-1.071.7-.91a1.2,1.2,0,0,1,.72.621,2.128,2.128,0,0,0,2.191,1.2,2.54,2.54,0,0,0,1.42-.685A1.533,1.533,0,0,1,365.535,419.234Z" transform="translate(-350.661 -411.952)"/></g><g transform="translate(47.79 187.76)"><path class="p" d="M346.535,412.44a34.517,34.517,0,0,0,1.28,4.109c.5,1.032,3.922-.24,4.1-.949s-1.576-5.67-1.576-5.67" transform="translate(-340.096 -409.93)"/><path class="q" d="M354.5,415.13c.442,1.109,1.1,3.257,1.1,3.257l-3.185,1.9-.625-.471a6.215,6.215,0,0,1-1.675,1.751,13.647,13.647,0,0,1-3.154,1.307c-2.91.664-5.157.343-5.388-.058-.962-1.672,2.895-2.591,3.645-2.89a5.2,5.2,0,0,0,3.214-4.242c.052-.94-.191-1.077.314-1.106a1.2,1.2,0,0,1,.9.31,2.129,2.129,0,0,0,2.477.3,2.536,2.536,0,0,0,1.066-1.163A1.535,1.535,0,0,1,354.5,415.13Z" transform="translate(-341.412 -408.878)"/></g><path class="l" d="M364.386,341.66c1.51-1.115,3.155-2.367,4.72-3.672,3.563-2.993,6.746-6.244,7.141-8.61.87-5.305.19-21.069-.231-28.508-.014-.449-.042-.871-.068-1.266-.422-7.031-4.2-10.146-6.094-11.288-.965,9.139-3.142,29.773-3.318,30.833C366.3,320.51,364.386,341.66,364.386,341.66Z" transform="translate(-287.72 -253.415)"/><path class="l" d="M364.383,339.53c1.51-1.115,3.155-2.367,4.72-3.672.133-5.813,1.864-13.93,4.3-24.09,2.891-12.808,1.073-15.164,1.073-15.164l-5.808.884c-.965,9.045-2.012,18.811-2.135,19.531C366.3,318.38,364.383,339.53,364.383,339.53Z" transform="translate(-287.72 -251.285)"/><path class="r" d="M353.377,379.122a139.9,139.9,0,0,0,1.8,17.867c.773,3.963,13.232,4.691,11.63,1.637-2.311-4.434,1.719-18.341,3.7-42.05.287-3.587,1.9-4,2.97-11.381,1.056-7.393-3.008-13.8-3.008-13.8l-17.289-1.605-.222,21.534-.067,7.281S352.855,368.592,353.377,379.122Z" transform="translate(-290.672 -242.76)"/><path class="r" d="M364.9,383.641s3.382,4.143,2.911,11.742-3.117,30.28-3.117,30.28-3.967.586-6.013-.17c0,0-4.277-42.064-4.294-46.84S364.9,383.641,364.9,383.641Z" transform="translate(-290.288 -230.544)"/><path class="v" d="M353.377,377.761a133.334,133.334,0,0,1,5.021-13.977,26.975,26.975,0,0,1,4.9-7.591c8.772-9.2,2.739-21.106,2.739-21.106S358.9,341,358.4,341.618c-.473.572-3.328,5.6-5.437,8.342l-.067,7.281S352.855,367.23,353.377,377.761Z" transform="translate(-290.672 -241.399)"/><path class="r" d="M337.658,366.783s-3.92,12.9-3.3,16.945S349.317,425.6,349.317,425.6a14.445,14.445,0,0,0,5.75-1.423s-.309-16.653-3.121-27.074-6.077-16.8-8.878-17.73S338.436,368.951,337.658,366.783Z" transform="translate(-295.451 -233.255)"/><path class="r" d="M348.862,372.879s-4.252,6.771-1.635,12.848-4.383,5.065-4.383,5.065-3.5-10.186-2.721-11.508,3.655-5.754,4.588-5.988A40.48,40.48,0,0,1,348.862,372.879Z" transform="translate(-293.982 -231.689)"/><path class="r" d="M345.75,330.193s-9.1,42.107-10.283,53.453c-.5,4.811,4.553,12.758,9.218,8.408,5.569-5.192,14.588-28.964,17.387-33.164s13.276-8.049,6.121-29.357" transform="translate(-295.158 -242.826)"/><path class="p" d="M365.484,290.671s-1.244-4.214-.7-7.325,2.412-8.709,1.712-12.909-5.988-7.7-11.588-7.154-7.231,5.91-8.165,9.021-.778,7.853-.544,10.42a7.2,7.2,0,0,0,2.567,5.132c.933.544,4.443-.173,5.06.5s1.082,4.637,1.082,4.637" transform="translate(-292.438 -259.861)"/><path class="i" d="M367.19,288.547s-.312-2.459-1.244-3.328-7.154-.871-9.021-.637a28.583,28.583,0,0,0-7.076,2.832c-.608.454.592,2.815.592,2.815Z" transform="translate(-291.499 -254.409)"/><path class="r" d="M364.983,286.056s-7.777.66-9.255,0-3.615-2.1-3.81-4.744.349-3.462-.661-4.938-1.905-.973-2.061.427-.216,3.928-.583,4.114c-.5.25-1.085-1.53-.894-4.231a16.7,16.7,0,0,1,1.127-5.715c.7-1.555,1.08-1.468,1.711-1.75-.68-.331-1.415-.37-2.76-2.469-1.557-2.431-.7-6.218,3.421-6.2,7.2.026,14.853,1.438,15.009,6.765,0,0,2.526-.388,2.6,4.472s-3.033,10.73-3.265,12.247S365.759,285.705,364.983,286.056Z" transform="translate(-292.169 -260.549)"/><path class="l" d="M344.759,336.428c-.285,2.435-2.421,6.2-.965,6.732a27.691,27.691,0,0,0,5.876-.176h.082c.054,0,.094-.014.136-.014,2.584-.217,5.536-.5,8.012-.694,9.888-.422,14.933,1.551,15.926.993.476-.285.49-1.143.341-2.026a23.018,23.018,0,0,1-.163-6.556c.245-1.836.584-4.026,1.061-6.528,1.632-8.664,4.828-21.9,5.3-29.856.762-12.472-12.594-11.288-12.594-11.288-17-1.062-24.986,3.835-25.91,11.139-.069.517-.109,1.075-.151,1.659-.435,7.535,1.864,19.695,2.952,28.781A45.769,45.769,0,0,1,344.759,336.428Z" transform="translate(-293.559 -253.787)"/><path class="ac" d="M344.759,334c-.285,2.435-2.421,6.2-.965,6.732a27.691,27.691,0,0,0,5.876-.176c-2.626.19-3.115-1.823-2.53-3.17a19.242,19.242,0,0,0,1.687-8.052c-.123-3.617-1.483-11.779-2.285-19.49a62.751,62.751,0,0,1-.014-13.521c-.407.816-1.577,1.96-4.869,2.72-.068,7.577,2,18.675,3.007,27.122A45.769,45.769,0,0,1,344.759,334Z" transform="translate(-293.559 -251.358)"/><path class="p" d="M309.837,323.662c-.391-.211.023-.657.415-.655a2.484,2.484,0,0,1,.322.045c-.693-.228-1.254-.421-1.383-.49-.371-.2-.028-.627.344-.67-.275-.1-.481-.18-.564-.222-.479-.248-.057-.694.41-.661a6.215,6.215,0,0,1,.737.161,3.834,3.834,0,0,1-.378-.151c-.39-.211-.093-.639.3-.636a5.692,5.692,0,0,1,.85.182c.436.1.924.167,1.359.282a9.138,9.138,0,0,0,1.272.22,5.51,5.51,0,0,0,2.244-1.281l-1.484-.823s-.087-1.308,4.051.263c.615.233,1.143,1.078,1.527,1.179a9.477,9.477,0,0,0,1.525.089l0,3.622a8.517,8.517,0,0,0-2.618-.117,27.066,27.066,0,0,1-3.414,1.056,14.657,14.657,0,0,1-1.726-.172l-1.242-.26-1.165-.368S309.965,323.731,309.837,323.662Z" transform="translate(-302.011 -245.673)"/><path class="l" d="M318.07,331.728s6.474,1.469,11.737,2.45a51.015,51.015,0,0,0,12.638,1.027c.031,0,.068.014.1.011,2.633-.1,6.121-.872,6.936-2.05a42.332,42.332,0,0,0,2.4-5.838c1.332-2.745,3.343-10.2,5.04-16.552.029-.106.053-.2.077-.292.788-2.958,1.515-5.66,2.056-7.5a3.979,3.979,0,0,0-.063-2.574,3.577,3.577,0,0,0-1.383-1.812c-.008-.018-.008-.018-.02-.023-1.78-1.212-1.234-2.937-3.066-1.755-.094.049-1.2-.282-1.277-.228-1.183-2.892-.387-6.786-.387-6.786s-5.138,2.252-7.01,12.843c-.416,2.349-2.992,18.922-3.172,20.952-.008.16-.01.307-.024.447,0,0-.069.236-.135.607-.018.111-.019.258-.034.4a19.975,19.975,0,0,0-5.015.478c-5.859,1.335-18.982,2.006-18.982,2.006l-.344,3.274,0,.043.008.019Z" transform="translate(-299.619 -253.032)"/><g class="ad" transform="translate(1.387 54.038)"><path class="ae" d="M324.215,303.541l9.9,9.548L332.451,307l-3.588-3.462Z" transform="translate(-299.427 -303.541)"/><path class="ae" d="M336.22,318l-14.992-14.462h1.829L335.564,315.6Z" transform="translate(-300.195 -303.541)"/><path class="ae" d="M308.922,303.541l17.826,17.184h1.815l-17.812-17.184Z" transform="translate(-303.356 -303.541)"/><path class="ae" d="M304.518,304.435l.6,2.164v.014l14.629,14.113h5.025l-17.812-17.185H305.2a.687.687,0,0,0-.558.28A.7.7,0,0,0,304.518,304.435Z" transform="translate(-304.494 -303.541)"/></g></g><g transform="translate(79.961)"><path class="h" d="M369.807,262.8a9.927,9.927,0,1,1,1.5,2.682l-4.3.752Z" transform="translate(-367.007 -249.373)"/><path class="i" d="M381.717,255.164a2.428,2.428,0,0,0-3.434.14l-.6.65-.656-.608a2.43,2.43,0,1,0-3.3,3.565l2.432,2.256.014.015a2.431,2.431,0,0,0,3.434-.139l2.252-2.443A2.43,2.43,0,0,0,381.717,255.164Z" transform="translate(-365.481 -248.051)"/></g></g><ellipse class="a" cx="43.843" cy="3.002" rx="43.843" ry="3.002" transform="translate(8.126 225.694)"/><path class="h" d="M95.638,253.485a9.928,9.928,0,1,0-2.262,2.081l3.852,2.055Z" transform="translate(-77.909 -237.331)"/><path class="i" d="M82.637,243.228a2.428,2.428,0,0,1,3.436.036l.618.632.637-.627a2.43,2.43,0,1,1,3.41,3.463l-2.364,2.328-.013.016a2.43,2.43,0,0,1-3.436-.036L82.6,246.666A2.431,2.431,0,0,1,82.637,243.228Z" transform="translate(-76.882 -235.994)"/><g transform="translate(13.17 16.736)"><path class="r" d="M99.433,292.747,95.9,306.468s13.233,10.128,18.382,5.872-.14-17.4-.14-17.4l-1.835-1.833Z" transform="translate(-86.456 -239.829)"/><path class="r" d="M120.557,256.625s3.744,4.437,2.536,13.47c-.43,2.647,3.048,6.35,5.362,8.223s4.448,6.315,2.606,10.48-2.6,4.574-1.131,8.37c2.8,7.257,1.13,20.632-9.285,19.558s-11.291-36.85-11.291-36.85l.691-11.909Z" transform="translate(-83 -249.109)"/><g transform="translate(32.08 19.669)"><path class="p" d="M115.9,290.857s3.79.559,8.576,1.1c7.2.827,16.655,1.6,19.055.414,3.983-2,17.072-13.235,17.072-13.235l2.054-1.329a2.818,2.818,0,0,1,1.13-.377,13.649,13.649,0,0,0,2.144-.386,5.194,5.194,0,0,0,1.373-.593.81.81,0,0,0,.224-.134.3.3,0,0,1,.063-.036,21.933,21.933,0,0,0,2.2-1.795c.906-.735-.445-1.2-1.973-.447-1.521.732-.552.588-1.521.552s.063-1.471.945-2.5a21.916,21.916,0,0,0,1.511-2.1c.8-1.1,1.556-1.97,1.991-2.684.3-.5.426-1.144-.148-.982-.6.184-3.135,2.661-3.772,3.083s-1.57-.358-3.35.625-2.479,3.862-3.039,4.783-18.673,11.527-20.92,11.424-19.264-4.172-24.534-3.878C112.125,282.514,115.9,290.857,115.9,290.857Z" transform="translate(-113.91 -266.295)"/><path class="y" d="M122.314,289.881c7.2.827,16.655,1.6,19.055.414,3.983-2,17.072-13.235,17.072-13.235l2.054-1.329a2.818,2.818,0,0,1,1.13-.377,13.649,13.649,0,0,0,2.144-.386,5.194,5.194,0,0,0,1.373-.593c-1.207.6-3.719.1-4.952.755-1.327.682-10.533,8.183-14.7,10.83-4.162,2.631-5.732,3.528-9.472,3.521s-12.623-1.574-12.623-1.574Z" transform="translate(-111.75 -264.219)"/></g><path class="af" d="M119.645,409.289a34.008,34.008,0,0,1,.564,6.654c-.431,2.031-.07,2.642-.07,2.642l7.76-.443s-3.375-1.777-2.911-9.755S119.645,409.289,119.645,409.289Z" transform="translate(-80.356 -210.973)"/><path class="q" d="M120.346,414.213a12.115,12.115,0,0,0,6.683.494,31.533,31.533,0,0,0,10.14,3.255c3.545.551,2.832,3.459-3.235,2.883a76.022,76.022,0,0,0-11.671-.319c-1.355.1-3.521.216-3.585-.732S119.256,413.869,120.346,414.213Z" transform="translate(-80.605 -208.626)"/><path class="af" d="M100.74,408.758a34.135,34.135,0,0,1,.564,6.655c-.431,2.03-.07,2.641-.07,2.641l7.759-.442s-3.375-1.777-2.91-9.755S100.74,408.758,100.74,408.758Z" transform="translate(-85.213 -211.109)"/><path class="q" d="M101.44,413.682a12.122,12.122,0,0,0,6.683.5,31.567,31.567,0,0,0,10.141,3.254c3.543.551,2.832,3.459-3.237,2.883A76.007,76.007,0,0,0,103.358,420c-1.355.1-3.522.217-3.585-.732S100.351,413.338,101.44,413.682Z" transform="translate(-85.463 -208.762)"/><path class="r" d="M127.8,321.166s3.518,52.328,3.622,59.131a97.6,97.6,0,0,1-.372,13.294c-.412,4.126,1.158,39.044,1.158,39.044s-11.679,2.7-14.558-.073c0,0,1.549-37.979.254-44.52s-6.145-39.636-6.145-39.636l7.6-33.489Z" transform="translate(-82.382 -234.133)"/><path class="r" d="M104.593,382.092c1.456-9.715.4-49.288.723-57.654s23.757-3.449,23.757-3.449-8.762,48.831-9.847,55.9-2.325,9.1-2.959,15.881-4.78,38.6-4.78,38.6-13.025,1.813-13.935-.666C95.856,418.084,104.593,382.092,104.593,382.092Z" transform="translate(-86.088 -232.942)"/><path class="l" d="M126.545,297.7c-.27.646.294,5.163,1.153,10.871.031.24.074.48.106.72,1.06,7.032,2.528,15.675,3.4,21.169.043.253.074.48.118.708.266,1.706.48,3.057.582,3.876,0,0-15.573-3.341-28.144,1.927a76.839,76.839,0,0,1,3.744-15.136c.082-.224.175-.435.256-.646a36.365,36.365,0,0,1,1.784-3.935,1.576,1.576,0,0,1,.106-.211,3.791,3.791,0,0,0,.216-.522.418.418,0,0,0,.093-.186c.789-2.1.45-4.829-.5-7.748a45.455,45.455,0,0,0-3.83-8.243c-.911-1.585-1.874-3.108-2.779-4.48v-.013c-2.618-3.908-4.878-6.713-4.878-6.713a12.182,12.182,0,0,1,1.552-9.625c0-.013.013-.013.026-.024a10.026,10.026,0,0,1,1.275-1.536c1.334-1.334,5.04-3.04,8.061-4.05.774-.255,1.51-.473,2.143-.618a8.258,8.258,0,0,1,1.313-.227,14.474,14.474,0,0,1,4.17.167c3.273.734,4.421,2.878,9.309,4.348l10.548,3.164s-1.419,8.925-.326,11.609l-7.376-.206S127.273,295.951,126.545,297.7Z" transform="translate(-86.021 -244.905)"/><path class="ac" d="M108.887,312.64c1.948-5.224-2.993-14.259-7.107-20.463v-.014l4.548-4.788s-.082,7.873,1.269,10.957C108.937,301.386,111.079,307.674,108.887,312.64Z" transform="translate(-84.946 -241.209)"/><path class="ac" d="M120.577,282.363s3.078,4.98,2.188,7.373l7.382.206a8.613,8.613,0,0,1-.416-3.248C128.594,286.982,124.14,288.078,120.577,282.363Z" transform="translate(-80.116 -242.497)"/><g transform="translate(6.768 51.64)"><path class="s" d="M115.977,324.56l29.353-1.18a1.519,1.519,0,0,0,1.428-1.214L150.82,302.3a1.522,1.522,0,0,0-1.551-1.825l-29.352,1.18a1.522,1.522,0,0,0-1.429,1.214l-4.061,19.863A1.52,1.52,0,0,0,115.977,324.56Z" transform="translate(-88.473 -289.483)"/><path class="h" d="M115.746,323.7l29.223-1.175a.91.91,0,0,0,.856-.728l4.017-19.643a.911.911,0,0,0-.929-1.094L120.359,302.2a1.423,1.423,0,0,0-1.337,1.139l-3.991,19.511A.7.7,0,0,0,115.746,323.7Z" transform="translate(-88.313 -289.334)"/><path class="p" d="M118.9,316.1l-.214,1.194-.616-.088-.352,1.735-1.37-.251c0-.013,0-.013-.013-.013a.046.046,0,0,1-.038-.013c-1.521-.264-4.211-.8-7.805-1.647-2.325-.528-5.015-1.182-8.044-1.961-3.984-1.018-6.574-3.054-6.637-3.607a22.959,22.959,0,0,1,.352-4.789c.151-1.094.339-2.288.553-3.494.729-4.387,1.709-9.1,2.074-10.784a4.115,4.115,0,0,1,.088-.427l.038-.226,1.156.452,6.3,2.426-.415,1.182-3.909,11.237a.371.371,0,0,0-.025.163.724.724,0,0,0,.49.767,98.577,98.577,0,0,1,10.018,4.487c2.753,1.37,5.166,2.665,6.511,3.394a2.063,2.063,0,0,0,.277.151,1.751,1.751,0,0,0,.968.2A2.85,2.85,0,0,0,118.9,316.1Z" transform="translate(-93.771 -291.73)"/><path class="y" d="M116.291,318.619c-1.515-.269-4.2-.809-7.8-1.64-2.324-.53-5.021-1.184-8.043-1.961-3.982-1.029-6.579-3.064-6.639-3.606a23.091,23.091,0,0,1,.349-4.794c.7-5.06,2.163-12.136,2.626-14.286.03-.175.06-.324.088-.425l1.574.812s-.058.274-.172.762c-.505,2.311-2.035,9.348-2.741,13.453a20.878,20.878,0,0,0-.357,2.844c.082,2.051,1.205,2.309,2.6,2.9.8.349,6.19,2.123,10.975,3.653C112.386,317.5,115.678,318.514,116.291,318.619Z" transform="translate(-93.771 -291.685)"/><path class="p" d="M112.279,311.168a7.259,7.259,0,0,0,1.076.161,1.391,1.391,0,0,0,.564-.1A8.76,8.76,0,0,1,117.1,309.9l-.245,1.2s1.99,1.127,2.616,1.531c0,0,.654.3.915.375s2.594-.136,3.142-.126.85.328.835.675c0,0-.036.175-.337.23-.052.009-.21.031-.4.057.278-.018.512-.03.62-.029.548.01.85.329.835.676,0,0-.036.175-.337.23-.085.015-.5.068-1.031.132.429.072.671.342.659.647,0,0-.036.173-.337.229-.089.016-.535.073-1.1.142a.582.582,0,0,1,.249.489s-.035.175-.337.23-4.373.713-4.789.637a22.32,22.32,0,0,1-3.817-2.358,11.522,11.522,0,0,0-1.277-.607Z" transform="translate(-89.016 -287.06)"/></g><path class="l" d="M108.98,289.71c-1.634,5.656-2.363,8.622-2.64,9.766-.088.364-.126.54-.126.54a14.928,14.928,0,0,1-2.539-.289,16.125,16.125,0,0,1-5.681-2.262c-.138-.088-.277-.189-.415-.289a13.257,13.257,0,0,1-1.068-.855,12.357,12.357,0,0,1-1.672-1.835s1.7-11.1,5.392-15.85c0-.013.013-.013.025-.025a5.656,5.656,0,0,1,2.237-1.848,2.515,2.515,0,0,1,.365-.126,4.144,4.144,0,0,1,4.764,1.546A10.465,10.465,0,0,1,109.6,283.8,16.494,16.494,0,0,1,108.98,289.71Z" transform="translate(-86.729 -244.028)"/><path class="p" d="M118.505,274.982a9.327,9.327,0,0,1-4.232,1.027,13.772,13.772,0,0,0,.156,1.869,8,8,0,0,1,.793.22c.549.2.3,1.277.231,1.678a2.756,2.756,0,0,1-3.717,2.132c-1.7-.483-2.34-2.362-2.912-3.835-.24-.617-1.522-1.205-1.569-2.4-.025-.359-.038-.742-.049-1.148a12.485,12.485,0,0,1-1.212-.554s-.166-1.927-.209-4.545c-.014-.729-.026-1.528,0-2.339.048-3.749.434-8.034,1.768-10.2,1.673-2.7,6.037-2.25,9.061-1.528a26.27,26.27,0,0,1,3.169.958S123.828,272.2,118.505,274.982Z" transform="translate(-83.921 -249.575)"/><path class="ag" d="M114.982,257.553a5.422,5.422,0,0,1-1.807,4.864c-2.333,1.88-6.344,2.837-6.43,5.28a4.843,4.843,0,0,0,1.1,2.816,14.611,14.611,0,0,1-2.743-.284c-.124-.186-1.4-5.743-1.4-5.743s5.317-6.172,5.983-6.5S114.982,257.553,114.982,257.553Z" transform="translate(-84.451 -248.871)"/><path class="r" d="M121.083,256.433c-3.029-.716-7.391-1.169-9.062,1.533-1.332,2.162-1.722,6.448-1.772,10.194a2.237,2.237,0,0,0,0,2.338c.05,2.614.214,4.537.214,4.537a11.344,11.344,0,0,0,1.207.566c.013.4.025.779.05,1.144.05,1.194.113,2.162.151,2.828-2.74.918-6.1,2.451-7.353,3.683a2.515,2.515,0,0,0-.365.126,5.656,5.656,0,0,0-2.237,1.848c-.013.013-.025.013-.025.025-3.7,4.751-5.392,15.85-5.392,15.85a12.357,12.357,0,0,0,1.672,1.835c-.365,1.684-1.345,6.4-2.074,10.784a14.447,14.447,0,0,1-3.834-2.225A11.185,11.185,0,0,1,90.3,296.78c2.413-3.419,2.275-5.656,2.011-6.461-3.243-10.131,1.219-17.459,6.5-20.614a7.254,7.254,0,0,0,3.519-6.3c-.025-2.828.465-6.322,2.589-8.71,3.067-3.469,6.511-4.349,9.565-3.972a10.11,10.11,0,0,1,6.951,4.462C121.674,255.591,121.473,256.006,121.083,256.433Z" transform="translate(-88.387 -250.646)"/><path class="r" d="M109.648,273.958a2.122,2.122,0,0,1-.271.988c-.583.134-1.259.334-1.972.569-.04-.661-.106-1.635-.152-2.829-.025-.359-.038-.742-.049-1.148a12.485,12.485,0,0,1-1.212-.554s-.166-1.927-.209-4.545a4.225,4.225,0,0,0,.918,1.149S109.8,270.338,109.648,273.958Z" transform="translate(-83.917 -246.588)"/><path class="r" d="M116.61,255.363c-.943,1.027-3,2.185-2.95,3.634.132,3.963-3.971,5.769-7.177,7.416a1.793,1.793,0,0,0-.7.675c.048-3.749.434-8.034,1.768-10.2C109.221,254.194,113.585,254.641,116.61,255.363Z" transform="translate(-83.918 -249.575)"/><path class="r" d="M122.544,252.363a4.515,4.515,0,0,1,.173,6.939c-2.142,1.747-5.723,2.911-11.365.231-6.731-3.2-5.042-8.86-.671-8.682C119.114,253.4,119.937,250.353,122.544,252.363Z" transform="translate(-83.645 -250.594)"/></g><path class="r" d="M113.044,270.67s3.245,9.187-11.366,7.334c-12.24-1.552-10.16,15.575-10.16,15.575l4.615-10.317,5.65-7.542,3.076-3.352Z" transform="translate(-74.447 -228.766)"/></g></g></svg>